<mxfile host="app.diagrams.net" modified="2022-05-19T01:45:24.447Z" agent="5.0 (Windows NT 10.0; Win64; x64) AppleWebKit/537.36 (KHTML, like Gecko) Chrome/101.0.4951.67 Safari/537.36" etag="vmlQu_pS3FQhpbfWgStV" version="18.0.3" type="github">
  <diagram id="Ol8vFIkhu5013qEmaFDS" name="Page-1">
    <mxGraphModel dx="1038" dy="585" grid="1" gridSize="10" guides="1" tooltips="1" connect="1" arrows="1" fold="1" page="1" pageScale="1" pageWidth="827" pageHeight="1169" math="0" shadow="0">
      <root>
        <mxCell id="0" />
        <mxCell id="1" parent="0" />
        <mxCell id="VDJIiMRgzMIFcGA9SuKN-1" value="&lt;font style=&quot;font-size: 24px;&quot;&gt;Verilog&amp;nbsp;&lt;/font&gt;" style="shape=note;whiteSpace=wrap;html=1;backgroundOutline=1;darkOpacity=0.05;" vertex="1" parent="1">
          <mxGeometry x="140" y="48" width="220" height="90" as="geometry" />
        </mxCell>
        <mxCell id="VDJIiMRgzMIFcGA9SuKN-2" value="&lt;font style=&quot;font-size: 24px;&quot;&gt;C++&lt;/font&gt;" style="shape=note;whiteSpace=wrap;html=1;backgroundOutline=1;darkOpacity=0.05;" vertex="1" parent="1">
          <mxGeometry x="580" y="70" width="130" height="160" as="geometry" />
        </mxCell>
        <mxCell id="VDJIiMRgzMIFcGA9SuKN-3" value="硬件仿真主程序" style="shape=process;whiteSpace=wrap;html=1;backgroundOutline=1;fontSize=24;" vertex="1" parent="1">
          <mxGeometry x="150" y="410" width="230" height="90" as="geometry" />
        </mxCell>
        <mxCell id="VDJIiMRgzMIFcGA9SuKN-4" value="调度程序" style="shape=process;whiteSpace=wrap;html=1;backgroundOutline=1;fontSize=24;" vertex="1" parent="1">
          <mxGeometry x="540" y="410" width="230" height="90" as="geometry" />
        </mxCell>
        <mxCell id="VDJIiMRgzMIFcGA9SuKN-5" value="" style="shape=flexArrow;endArrow=classic;startArrow=none;html=1;rounded=0;fontSize=24;exitX=1;exitY=0.5;exitDx=0;exitDy=0;" edge="1" parent="1" source="VDJIiMRgzMIFcGA9SuKN-6" target="VDJIiMRgzMIFcGA9SuKN-4">
          <mxGeometry width="100" height="100" relative="1" as="geometry">
            <mxPoint x="410" y="410" as="sourcePoint" />
            <mxPoint x="510" y="310" as="targetPoint" />
          </mxGeometry>
        </mxCell>
        <mxCell id="VDJIiMRgzMIFcGA9SuKN-6" value="管道通信" style="text;html=1;strokeColor=none;fillColor=none;align=center;verticalAlign=middle;whiteSpace=wrap;rounded=0;fontSize=24;" vertex="1" parent="1">
          <mxGeometry x="430" y="440" width="60" height="30" as="geometry" />
        </mxCell>
        <mxCell id="VDJIiMRgzMIFcGA9SuKN-7" value="" style="shape=flexArrow;endArrow=none;startArrow=classic;html=1;rounded=0;fontSize=24;exitX=1;exitY=0.5;exitDx=0;exitDy=0;" edge="1" parent="1" source="VDJIiMRgzMIFcGA9SuKN-3" target="VDJIiMRgzMIFcGA9SuKN-6">
          <mxGeometry width="100" height="100" relative="1" as="geometry">
            <mxPoint x="380" y="455" as="sourcePoint" />
            <mxPoint x="540" y="455" as="targetPoint" />
          </mxGeometry>
        </mxCell>
        <mxCell id="VDJIiMRgzMIFcGA9SuKN-8" value="&lt;font style=&quot;font-size: 24px;&quot;&gt;C++&lt;/font&gt;" style="shape=note;whiteSpace=wrap;html=1;backgroundOutline=1;darkOpacity=0.05;" vertex="1" parent="1">
          <mxGeometry x="590" y="80" width="130" height="160" as="geometry" />
        </mxCell>
        <mxCell id="VDJIiMRgzMIFcGA9SuKN-24" style="edgeStyle=orthogonalEdgeStyle;rounded=0;orthogonalLoop=1;jettySize=auto;html=1;entryX=0.541;entryY=-0.02;entryDx=0;entryDy=0;entryPerimeter=0;fontSize=24;" edge="1" parent="1" source="VDJIiMRgzMIFcGA9SuKN-9" target="VDJIiMRgzMIFcGA9SuKN-4">
          <mxGeometry relative="1" as="geometry" />
        </mxCell>
        <mxCell id="VDJIiMRgzMIFcGA9SuKN-9" value="&lt;font style=&quot;font-size: 24px;&quot;&gt;C++&lt;/font&gt;" style="shape=note;whiteSpace=wrap;html=1;backgroundOutline=1;darkOpacity=0.05;" vertex="1" parent="1">
          <mxGeometry x="600" y="90" width="130" height="160" as="geometry" />
        </mxCell>
        <mxCell id="VDJIiMRgzMIFcGA9SuKN-10" value="&lt;font style=&quot;font-size: 24px;&quot;&gt;Verilog&amp;nbsp;&lt;/font&gt;" style="shape=note;whiteSpace=wrap;html=1;backgroundOutline=1;darkOpacity=0.05;" vertex="1" parent="1">
          <mxGeometry x="150" y="58" width="220" height="90" as="geometry" />
        </mxCell>
        <mxCell id="VDJIiMRgzMIFcGA9SuKN-11" value="&lt;font style=&quot;font-size: 24px;&quot;&gt;Verilog&amp;nbsp;&lt;/font&gt;" style="shape=note;whiteSpace=wrap;html=1;backgroundOutline=1;darkOpacity=0.05;" vertex="1" parent="1">
          <mxGeometry x="160" y="68" width="220" height="90" as="geometry" />
        </mxCell>
        <mxCell id="VDJIiMRgzMIFcGA9SuKN-12" value="&lt;font style=&quot;font-size: 24px;&quot;&gt;Verilog&amp;nbsp;&lt;/font&gt;" style="shape=note;whiteSpace=wrap;html=1;backgroundOutline=1;darkOpacity=0.05;" vertex="1" parent="1">
          <mxGeometry x="170" y="78" width="220" height="90" as="geometry" />
        </mxCell>
        <mxCell id="VDJIiMRgzMIFcGA9SuKN-13" value="&lt;font style=&quot;font-size: 24px;&quot;&gt;Verilog&amp;nbsp;&lt;/font&gt;" style="shape=note;whiteSpace=wrap;html=1;backgroundOutline=1;darkOpacity=0.05;" vertex="1" parent="1">
          <mxGeometry x="180" y="88" width="220" height="90" as="geometry" />
        </mxCell>
        <mxCell id="VDJIiMRgzMIFcGA9SuKN-14" value="&lt;span style=&quot;font-size: 24px;&quot;&gt;C++&lt;/span&gt;" style="shape=note;whiteSpace=wrap;html=1;backgroundOutline=1;darkOpacity=0.05;" vertex="1" parent="1">
          <mxGeometry x="251" y="240" width="79" height="90" as="geometry" />
        </mxCell>
        <mxCell id="VDJIiMRgzMIFcGA9SuKN-18" value="" style="endArrow=classic;html=1;rounded=0;fontSize=24;exitX=0.5;exitY=1;exitDx=0;exitDy=0;exitPerimeter=0;entryX=0.5;entryY=0;entryDx=0;entryDy=0;entryPerimeter=0;" edge="1" parent="1" source="VDJIiMRgzMIFcGA9SuKN-13" target="VDJIiMRgzMIFcGA9SuKN-14">
          <mxGeometry width="50" height="50" relative="1" as="geometry">
            <mxPoint x="270" y="240" as="sourcePoint" />
            <mxPoint x="320" y="190" as="targetPoint" />
          </mxGeometry>
        </mxCell>
        <mxCell id="VDJIiMRgzMIFcGA9SuKN-19" value="verilator" style="text;html=1;strokeColor=none;fillColor=none;align=center;verticalAlign=middle;whiteSpace=wrap;rounded=0;fontSize=24;" vertex="1" parent="1">
          <mxGeometry x="310" y="190" width="60" height="30" as="geometry" />
        </mxCell>
        <mxCell id="VDJIiMRgzMIFcGA9SuKN-20" value="" style="endArrow=classic;html=1;rounded=0;fontSize=24;exitX=0.5;exitY=1;exitDx=0;exitDy=0;exitPerimeter=0;entryX=0.609;entryY=-0.011;entryDx=0;entryDy=0;entryPerimeter=0;" edge="1" parent="1" source="VDJIiMRgzMIFcGA9SuKN-14" target="VDJIiMRgzMIFcGA9SuKN-3">
          <mxGeometry width="50" height="50" relative="1" as="geometry">
            <mxPoint x="320" y="400" as="sourcePoint" />
            <mxPoint x="370" y="350" as="targetPoint" />
          </mxGeometry>
        </mxCell>
        <mxCell id="VDJIiMRgzMIFcGA9SuKN-21" value="g++" style="text;html=1;strokeColor=none;fillColor=none;align=center;verticalAlign=middle;whiteSpace=wrap;rounded=0;fontSize=24;" vertex="1" parent="1">
          <mxGeometry x="235" y="360" width="60" height="30" as="geometry" />
        </mxCell>
        <mxCell id="VDJIiMRgzMIFcGA9SuKN-22" value="&lt;span style=&quot;font-size: 24px;&quot;&gt;C++&lt;/span&gt;" style="shape=note;whiteSpace=wrap;html=1;backgroundOutline=1;darkOpacity=0.05;" vertex="1" parent="1">
          <mxGeometry x="261" y="250" width="79" height="90" as="geometry" />
        </mxCell>
        <mxCell id="VDJIiMRgzMIFcGA9SuKN-23" value="&lt;span style=&quot;font-size: 24px;&quot;&gt;C++&lt;/span&gt;" style="shape=note;whiteSpace=wrap;html=1;backgroundOutline=1;darkOpacity=0.05;" vertex="1" parent="1">
          <mxGeometry x="271" y="260" width="79" height="90" as="geometry" />
        </mxCell>
        <mxCell id="VDJIiMRgzMIFcGA9SuKN-26" value="g++" style="text;html=1;strokeColor=none;fillColor=none;align=center;verticalAlign=middle;whiteSpace=wrap;rounded=0;fontSize=24;" vertex="1" parent="1">
          <mxGeometry x="670" y="300" width="60" height="30" as="geometry" />
        </mxCell>
        <mxCell id="VDJIiMRgzMIFcGA9SuKN-27" value="硬件代码" style="text;html=1;strokeColor=none;fillColor=none;align=center;verticalAlign=middle;whiteSpace=wrap;rounded=0;fontSize=24;" vertex="1" parent="1">
          <mxGeometry x="191" y="56" width="120" height="22" as="geometry" />
        </mxCell>
        <mxCell id="VDJIiMRgzMIFcGA9SuKN-28" value="调度算法" style="text;html=1;strokeColor=none;fillColor=none;align=center;verticalAlign=middle;whiteSpace=wrap;rounded=0;fontSize=24;" vertex="1" parent="1">
          <mxGeometry x="595" y="78" width="120" height="22" as="geometry" />
        </mxCell>
        <mxCell id="VDJIiMRgzMIFcGA9SuKN-30" value="&lt;span style=&quot;font-size: 24px;&quot;&gt;C++&lt;/span&gt;" style="shape=note;whiteSpace=wrap;html=1;backgroundOutline=1;darkOpacity=0.05;" vertex="1" parent="1">
          <mxGeometry x="140" y="240" width="79" height="90" as="geometry" />
        </mxCell>
        <mxCell id="VDJIiMRgzMIFcGA9SuKN-31" value="&lt;span style=&quot;font-size: 24px;&quot;&gt;C++&lt;/span&gt;" style="shape=note;whiteSpace=wrap;html=1;backgroundOutline=1;darkOpacity=0.05;" vertex="1" parent="1">
          <mxGeometry x="150" y="250" width="79" height="90" as="geometry" />
        </mxCell>
        <mxCell id="VDJIiMRgzMIFcGA9SuKN-33" style="rounded=0;orthogonalLoop=1;jettySize=auto;html=1;exitX=0.5;exitY=1;exitDx=0;exitDy=0;exitPerimeter=0;fontSize=24;entryX=0.581;entryY=0.016;entryDx=0;entryDy=0;entryPerimeter=0;" edge="1" parent="1" source="VDJIiMRgzMIFcGA9SuKN-32" target="VDJIiMRgzMIFcGA9SuKN-3">
          <mxGeometry relative="1" as="geometry">
            <mxPoint x="250" y="390" as="targetPoint" />
          </mxGeometry>
        </mxCell>
        <mxCell id="VDJIiMRgzMIFcGA9SuKN-32" value="&lt;span style=&quot;font-size: 24px;&quot;&gt;C++&lt;/span&gt;" style="shape=note;whiteSpace=wrap;html=1;backgroundOutline=1;darkOpacity=0.05;" vertex="1" parent="1">
          <mxGeometry x="160" y="260" width="79" height="90" as="geometry" />
        </mxCell>
        <mxCell id="VDJIiMRgzMIFcGA9SuKN-29" value="&lt;font style=&quot;font-size: 18px;&quot;&gt;总线逻辑仿真以及其他控制逻辑&lt;/font&gt;" style="text;html=1;strokeColor=none;fillColor=none;align=center;verticalAlign=middle;whiteSpace=wrap;rounded=0;fontSize=24;" vertex="1" parent="1">
          <mxGeometry x="45" y="260" width="115" height="80" as="geometry" />
        </mxCell>
      </root>
    </mxGraphModel>
  </diagram>
</mxfile>
